<?xml version="1.0" encoding="utf-8"?>
<!-- Generator: Adobe Illustrator 25.1.0, SVG Export Plug-In . SVG Version: 6.00 Build 0)  -->
<svg version="1.1" id="Слой_1" xmlns="http://www.w3.org/2000/svg" xmlns:xlink="http://www.w3.org/1999/xlink" x="0px" y="0px"
	 viewBox="0 0 600 285" style="enable-background:new 0 0 600 285;" xml:space="preserve" width="70px">
<style type="text/css">
	.st0{fill:#0036D3;}
	.st1{fill:#10DF91;}
</style>
<g>
	<g>
		<g>
			<path class="st0" d="M8.23,256.46C2.74,250.86,0,244.06,0,235.83c0-8.23,2.74-15.04,8.23-20.63c5.6-5.6,12.51-8.34,20.74-8.34
				c10.65,0,20.08,5.49,24.58,14.16l-12.18,7.13c-2.2-4.5-6.91-7.35-12.51-7.35c-8.45,0-14.71,6.26-14.71,15.04
				c0,4.28,1.43,7.9,4.17,10.75c2.74,2.74,6.25,4.17,10.54,4.17c5.71,0,10.42-2.74,12.62-7.24l12.29,7.02
				c-4.83,8.67-14.16,14.27-24.8,14.27C20.74,264.8,13.83,262.06,8.23,256.46z"/>
			<path class="st0" d="M86.08,264.8c-8.12,0-15.04-2.74-20.63-8.34c-5.6-5.6-8.34-12.51-8.34-20.63s2.74-14.93,8.34-20.52
				c5.6-5.6,12.51-8.45,20.63-8.45s15.03,2.85,20.63,8.45c5.6,5.6,8.45,12.4,8.45,20.52s-2.85,15.03-8.45,20.63
				C101.12,262.06,94.2,264.8,86.08,264.8z M86.08,250.98c4.28,0,7.79-1.43,10.65-4.28c2.85-2.86,4.28-6.48,4.28-10.87
				s-1.43-8.01-4.28-10.87c-2.85-2.85-6.37-4.28-10.65-4.28c-4.28,0-7.79,1.43-10.65,4.28c-2.74,2.85-4.17,6.48-4.17,10.87
				s1.43,8.01,4.17,10.87C78.29,249.55,81.8,250.98,86.08,250.98z"/>
			<path class="st0" d="M169.41,212.89c3.95,4.06,5.93,9.55,5.93,16.68v33.69h-14.16v-31.94c0-7.35-4.28-11.3-10.86-11.3
				c-7.35,0-12.07,4.5-12.07,13.61v29.63h-14.16v-54.88h14.16v6.15c3.4-5.16,8.89-7.68,16.35-7.68
				C160.63,206.86,165.57,208.83,169.41,212.89z"/>
			<path class="st0" d="M191.93,256.46c-5.49-5.6-8.23-12.4-8.23-20.63c0-8.23,2.74-15.04,8.23-20.63c5.6-5.6,12.51-8.34,20.74-8.34
				c10.65,0,20.08,5.49,24.58,14.16l-12.18,7.13c-2.2-4.5-6.91-7.35-12.51-7.35c-8.45,0-14.71,6.26-14.71,15.04
				c0,4.28,1.43,7.9,4.17,10.75c2.74,2.74,6.25,4.17,10.54,4.17c5.71,0,10.42-2.74,12.62-7.24l12.29,7.02
				c-4.83,8.67-14.16,14.27-24.8,14.27C204.44,264.8,197.53,262.06,191.93,256.46z"/>
			<path class="st0" d="M269.83,264.8c-8.12,0-15.04-2.74-20.63-8.34c-5.6-5.6-8.34-12.51-8.34-20.63s2.74-14.93,8.34-20.52
				c5.6-5.6,12.51-8.45,20.63-8.45s15.03,2.85,20.63,8.45c5.6,5.6,8.45,12.4,8.45,20.52s-2.85,15.03-8.45,20.63
				C284.87,262.06,277.96,264.8,269.83,264.8z M269.83,250.98c4.28,0,7.79-1.43,10.65-4.28c2.85-2.86,4.28-6.48,4.28-10.87
				s-1.43-8.01-4.28-10.87c-2.85-2.85-6.37-4.28-10.65-4.28c-4.28,0-7.79,1.43-10.65,4.28c-2.74,2.85-4.17,6.48-4.17,10.87
				s1.43,8.01,4.17,10.87C262.04,249.55,265.55,250.98,269.83,250.98z"/>
			<path class="st0" d="M321.99,217.83c2.64-7.02,9.22-10.54,16.68-10.54v15.8c-4.28-0.55-8.23,0.33-11.63,2.64
				c-3.4,2.3-5.05,6.04-5.05,11.3v26.23h-14.16v-54.88h14.16V217.83z"/>
			<path class="st0" d="M387.28,186.44h14.16v76.83h-14.16v-6.48c-4.17,5.38-10.1,8.01-17.78,8.01c-7.35,0-13.72-2.74-18.99-8.34
				c-5.16-5.6-7.79-12.51-7.79-20.63s2.63-14.93,7.79-20.52c5.27-5.6,11.63-8.45,18.99-8.45c7.68,0,13.61,2.63,17.78,8.01V186.44z
				 M372.14,251.3c4.39,0,8.01-1.43,10.87-4.28c2.85-2.96,4.28-6.7,4.28-11.19c0-4.5-1.43-8.23-4.28-11.08
				c-2.85-2.96-6.48-4.39-10.87-4.39c-4.39,0-8.01,1.43-10.97,4.39c-2.85,2.85-4.28,6.58-4.28,11.08c0,4.5,1.43,8.23,4.28,11.19
				C364.13,249.88,367.75,251.3,372.14,251.3z"/>
			<path class="st1" d="M464.31,215.31c5.27,5.6,7.9,12.4,7.9,20.52s-2.63,15.03-7.9,20.63c-5.16,5.6-11.52,8.34-18.88,8.34
				c-7.68,0-13.61-2.63-17.78-8.01v28.42h-14.16v-76.83h14.16v6.48c4.17-5.38,10.1-8.01,17.78-8.01
				C452.78,206.86,459.15,209.71,464.31,215.31z M442.8,251.3c4.39,0,8.01-1.43,10.87-4.28c2.96-2.96,4.39-6.7,4.39-11.19
				c0-4.5-1.43-8.23-4.39-11.08c-2.85-2.96-6.48-4.39-10.87-4.39c-4.39,0-8.01,1.43-10.86,4.39c-2.85,2.85-4.28,6.58-4.28,11.08
				c0,4.5,1.43,8.23,4.28,11.19C434.78,249.88,438.41,251.3,442.8,251.3z"/>
			<path class="st1" d="M523.01,208.39h14.16v54.88h-14.16v-6.48c-4.28,5.38-10.21,8.01-17.89,8.01c-7.35,0-13.61-2.74-18.88-8.34
				c-5.16-5.6-7.79-12.51-7.79-20.63s2.64-14.93,7.79-20.52c5.27-5.6,11.52-8.45,18.88-8.45c7.68,0,13.61,2.63,17.89,8.01V208.39z
				 M507.75,251.3c4.39,0,8.01-1.43,10.87-4.28c2.96-2.96,4.39-6.7,4.39-11.19c0-4.5-1.43-8.23-4.39-11.08
				c-2.85-2.96-6.48-4.39-10.87-4.39c-4.39,0-8.01,1.43-10.86,4.39c-2.85,2.85-4.28,6.58-4.28,11.08c0,4.5,1.43,8.23,4.28,11.19
				C499.74,249.88,503.36,251.3,507.75,251.3z"/>
			<path class="st1" d="M584.85,208.39H600l-19.97,54.88c-5.71,15.8-14.93,22.72-28.98,21.95v-13.17
				c7.57,0.11,11.75-3.07,14.38-10.54l-22.5-53.12h15.47l14.27,36.88L584.85,208.39z"/>
		</g>
	</g>
	<g>
		<g>
			<g>
				<path class="st1" d="M304.08,112.07l18.45,34.51h14.89c40.41,0,73.29-32.88,73.29-73.29S377.83,0,337.42,0l-14.89,0
					l-18.45,34.51h33.34c21.38,0,38.78,17.4,38.78,38.78s-17.4,38.78-38.78,38.78H304.08z"/>
			</g>
		</g>
		<g>
			<g>
				<path class="st0" d="M304.12,112.07l-18.45,34.51h-14.89c-40.41,0-73.29-32.88-73.29-73.29S230.37,0,270.78,0h14.89l18.45,34.51
					h-33.34c-21.38,0-38.78,17.4-38.78,38.78s17.4,38.78,38.78,38.78H304.12z"/>
			</g>
		</g>
	</g>
</g>
</svg>
