<?xml version="1.0" encoding="utf-8"?>
<!-- Generator: Adobe Illustrator 25.1.0, SVG Export Plug-In . SVG Version: 6.00 Build 0)  -->
<svg version="1.1" id="Слой_1" xmlns="http://www.w3.org/2000/svg" x="0px" y="0px" width="20px" height="20px"
	 viewBox="0 0 175 175" style="enable-background:new 0 0 0 0;" xml:space="preserve">
<style type="text/css">
	.st0{fill:#0039D1;}
	.st1{fill:#00E197;}
</style>
	<g>
		<path class="st1" d="M87.3,91.8l15.1,28.2h12.2c33.1,0,60-26.9,60-60s-26.9-60-60-60h-12.2L87.3,28.3h27.3
				c17.5,0,31.8,14.2,31.8,31.7s-14.2,31.8-31.8,31.8H87.3z"/>
	</g>
	<g>
		<path class="st0" d="M87.3,91.8L72.2,120H60C26.9,120,0,93.1,0,60S26.9,0,60,0h12.2l15.1,28.2H60c-17.5,0-31.8,14.2-31.8,31.7
				S42.5,91.8,60,91.8H87.3z"/>
	</g>
</svg>
